Coordinates
version=1
nRows=16
nColumns=36
inDegrees=yes

Units are S.I. units (second, meters, Newtons, ...)
If the header above contains a line with 'inDegrees', this indicates whether rotational values are in degrees (yes) or radians (no).

endheader
time	pelvis_tilt	pelvis_list	pelvis_rotation	pelvis_tx	pelvis_ty	pelvis_tz	hip_flexion_r	hip_adduction_r	hip_rotation_r	knee_angle_r	knee_angle_r_beta	ankle_angle_r	subtalar_angle_r	mtp_angle_r	hip_flexion_l	hip_adduction_l	hip_rotation_l	knee_angle_l	knee_angle_l_beta	ankle_angle_l	subtalar_angle_l	mtp_angle_l	lumbar_extension	lumbar_bending	lumbar_rotation	arm_flex_r	arm_add_r	arm_rot_r	elbow_flex_r	pro_sup_r	arm_flex_l	arm_add_l	arm_rot_l	elbow_flex_l	pro_sup_l
      0.68000000	     -1.08171923	     -1.98537961	     -2.21954573	      0.59632392	      1.00880675	     -0.19665600	    -14.27857241	      4.97092411	     -5.15242698	     17.55914217	      0.30646484	      8.87692703	      9.81288521	     -7.09621786	     22.06099131	      1.75818446	     -8.24589130	      1.19349699	      0.02083045	     -3.52660902	      4.54909057	     -7.09621786	     -8.58984177	     -0.17804794	     11.76253160	      2.43536940	    -13.77969638	    -10.90768986	     69.39978320	    108.86297180	    -28.40079018	      2.68009031	    -20.07980365	     28.29969111	     99.12117835
      0.69000000	     -1.12369240	     -1.59775445	     -2.15576280	      0.61232051	      1.00970735	     -0.19779185	    -13.21509633	      4.16684460	     -5.78103239	     20.69095413	      0.36112527	      7.21729638	      9.27377298	     -7.11294603	     21.32626178	      2.30366064	     -7.41462073	      1.18523553	      0.02068626	     -5.27764638	      2.66581902	     -7.11294603	     -8.40849388	     -0.59052378	     11.51818130	      1.66888921	    -13.26563148	    -11.34313129	     69.23053233	    108.98022407	    -28.26174055	      2.69607894	    -20.17238346	     28.12311961	     99.04878468
      0.70000000	     -0.85853962	     -1.10691468	     -2.04738304	      0.62834848	      1.01122970	     -0.19895218	    -12.26658493	      3.18940418	     -6.54403910	     24.07830936	      0.42024578	      5.03824079	      8.56844670	     -7.11746815	     20.32128926	      2.89238705	     -7.43141549	      1.36902790	      0.02389404	     -5.91459446	      2.51828612	     -7.11746815	     -8.58590095	     -1.14284243	     11.03338236	      1.04974968	    -12.76952031	    -11.41314142	     68.89686589	    108.88657179	    -28.11819723	      2.72467568	    -20.16725182	     28.09698124	     98.98678926
      0.71000000	     -0.94125030	     -0.56598425	     -1.87588879	      0.64372275	      1.01247144	     -0.20027978	    -10.56462940	      2.12560112	     -7.26967573	     28.00013404	      0.48869453	      2.60884815	      7.47777994	     -7.13298047	     19.70553702	      3.57733439	     -6.79642423	      1.54225566	      0.02691744	     -7.31148770	      0.88023253	     -7.13298047	     -8.42112060	     -1.71398750	     10.42872381	      0.44469471	    -12.20536550	    -11.61299604	     68.40744854	    108.98236687	    -27.88035032	      2.73547619	    -20.22522588	     28.06771404	     98.94206223
      0.72000000	     -0.68612583	      0.11317311	     -1.67420752	      0.65901871	      1.01424176	     -0.20168406	     -9.06824602	      0.80863396	     -8.10921781	     32.03595122	      0.55913283	     -0.24664355	      6.61334411	     -7.13801361	     18.76444792	      4.37594253	     -6.83272017	      1.86842562	      0.03261018	     -7.59213889	      0.76994367	     -7.13801361	     -8.68233569	     -2.44677018	      9.69272936	     -0.12190190	    -11.65356369	    -11.67814089	     67.98093675	    108.89291916	    -27.56862727	      2.72633674	    -20.18988880	     28.16100517	     98.90027386
      0.73000000	     -0.70936444	      0.75330504	     -1.45672782	      0.67363889	      1.01573485	     -0.20310243	     -7.02049616	     -0.46912061	     -8.73787319	     36.27670470	      0.63314794	     -3.51367547	      5.17889158	     -7.14481598	     18.19967955	      5.13282305	     -6.81973734	      2.29570988	      0.04006770	     -7.92775689	      0.43718133	     -7.14481598	     -8.69048395	     -3.10535235	      8.88266904	     -0.63394154	    -11.08371082	    -11.72987634	     67.36591385	    108.82586032	    -27.19572379	      2.72680166	    -20.16449804	     28.35824342	     98.87088166
      0.74000000	     -0.83064750	      1.35512187	     -1.26651143	      0.68771795	      1.01716244	     -0.20437960	     -4.71581018	     -1.67614734	     -9.10046895	     40.47562109	      0.70643285	     -7.21187811	      3.34208171	     -7.15510335	     17.76553395	      5.83851419	     -6.82619785	      2.77616376	      0.04845320	     -7.96677890	      0.10693734	     -7.15510335	     -8.64298541	     -3.72638789	      8.01741546	     -1.06448102	    -10.51203915	    -11.68963303	     66.65167258	    108.82772241	    -26.75593176	      2.71643799	    -20.18825266	     28.62616494	     98.85774027
      0.75000000	     -0.89233910	      1.99916121	     -1.08176789	      0.70146150	      1.01870252	     -0.20567246	     -2.40860696	     -2.94483504	     -9.35840049	     44.51384300	      0.77691312	    -10.76855889	      1.68197506	     -7.16366289	     17.25460478	      6.59433445	     -7.00681249	      3.23180418	      0.05640562	     -7.67051280	      0.24777561	     -7.16366289	     -8.70910566	     -4.38002245	      7.15248934	     -1.51029755	     -9.95771910	    -11.67193988	     65.92047971	    108.81016854	    -26.20831938	      2.67846115	    -20.18495227	     28.96657983	     98.86163667
      0.76000000	     -0.69263108	      2.68702764	     -0.97764679	      0.71502887	      1.02061463	     -0.20690867	     -0.37460349	     -4.26315661	     -9.38244375	     48.28091233	      0.84266089	    -13.60025050	      0.80915061	     -7.16735048	     16.35345386	      7.41438456	     -7.21463452	      3.50670651	      0.06120357	     -7.00709582	      0.43813584	     -7.16735048	     -9.11439500	     -5.06329395	      6.29992065	     -1.96015031	     -9.38907914	    -11.69602594	     65.34729145	    108.70013101	    -25.52558375	      2.60220838	    -20.12754019	     29.23638959	     98.84172365
      0.77000000	     -0.89575135	      3.23571880	     -0.92309776	      0.72806650	      1.02205266	     -0.20799863	      2.22351942	     -5.31600715	     -9.17860877	     51.90488625	      0.90591116	    -16.08191749	     -1.15146068	     -7.17238976	     15.93000559	      8.05331897	     -7.58919641	      3.80496945	      0.06640924	     -6.43400975	      0.90306483	     -7.17238976	     -9.05665003	     -5.58724615	      5.59966936	     -2.39870181	     -8.90231617	    -11.71666166	     64.38262898	    108.61378236	    -24.81466280	      2.52372712	    -20.08363650	     29.68737412	     98.84850246
      0.78000000	     -0.92246114	      3.61890891	     -0.94199658	      0.74090699	      1.02379240	     -0.20877657	      4.60474623	     -6.03883103	     -8.71699704	     55.12745233	      0.96215555	    -17.41495150	     -2.79725474	     -7.17677056	     15.24256204	      8.50406676	     -7.99785369	      3.98045575	      0.06947206	     -5.70104164	      1.35728437	     -7.17677056	     -9.21528665	     -5.94906654	      4.94480966	     -2.79982064	     -8.43154505	    -11.72313258	     63.46224757	    108.52404627	    -23.98641869	      2.39996698	    -20.05606721	     30.10363644	     98.84770394
      0.79000000	     -1.16616371	      3.81807226	     -1.00331538	      0.75340035	      1.02531821	     -0.20934951	      7.25769168	     -6.40093154	     -8.06707168	     58.03592295	      1.01291794	    -17.95935966	     -4.82272509	     -7.18532053	     14.85782807	      8.70734605	     -8.66828109	      4.28066640	      0.07471172	     -4.92670918	      2.27536103	     -7.18532053	     -9.11913218	     -6.10374999	      4.36228328	     -3.13910511	     -8.01621844	    -11.66129669	     62.26902215	    108.53555030	    -23.14287286	      2.30108955	    -20.11765503	     30.66922015	     98.87705524
      0.80000000	     -0.96390299	      4.07357010	     -1.13620637	      0.76618388	      1.02744211	     -0.20999730	      9.32841243	     -6.81643732	     -7.41043144	     60.50877460	      1.05607734	    -17.23756261	     -6.22297517	     -7.18850952	     13.68192706	      9.05980827	     -8.90329277	      4.02444557	      0.07023983	     -4.13885235	      2.67824067	     -7.18850952	     -9.51003381	     -6.28769619	      3.86365284	     -3.57748904	     -7.64421403	    -11.71818661	     61.28620502	    108.53080848	    -22.13981776	      2.14150150	    -20.07812753	     31.07676517	     98.92884048
      0.81000000	     -0.88430245	      4.18038833	     -1.26820254	      0.77877640	      1.02947415	     -0.21053054	     11.48721971	     -6.94981430	     -6.71028417	     62.55754018	      1.09183505	    -15.94177975	     -7.66394861	     -7.19194988	     12.62428719	      9.25452196	     -9.06586143	      3.73294607	      0.06515220	     -3.48106984	      3.12202001	     -7.19194988	     -9.75886802	     -6.31196391	      3.41763589	     -4.01209955	     -7.30277872	    -11.78836878	     60.17751105	    108.40174678	    -21.11562010	      1.96333135	    -20.01874676	     31.60354297	     98.93421832
      0.82000000	     -0.90540788	      4.20450230	     -1.33997046	      0.79133670	      1.03140153	     -0.21114418	     13.65345201	     -6.96273680	     -6.11584635	     64.14168844	      1.11948365	    -14.32377931	     -8.90001836	     -7.19688688	     11.66888918	      9.37471370	     -9.18277673	      3.43459326	      0.05994496	     -2.88138918	      3.62418433	     -7.19688688	     -9.86745694	     -6.23404759	      2.94157620	     -4.42348324	     -6.99874816	    -11.85841326	     58.86181285	    108.28289707	    -20.11052017	      1.77957734	    -19.97066354	     32.25979788	     98.94797859
      0.83000000	     -0.76011429	      4.06935286	     -1.41848695	      0.80388606	      1.03358398	     -0.21169208	     15.48614252	     -6.72717496	     -5.53248391	     65.15777447	      1.13721770	    -12.87881774	    -10.00550241	     -7.19952008	     10.47515093	      9.34841050	     -9.03169474	      3.05697183	      0.05335422	     -2.28816176	      3.87634692	     -7.19952008	    -10.16688581	     -5.96394773	      2.52068964	     -4.89494442	     -6.79340668	    -11.91507146	     57.76279464	    108.14210921	    -18.98083584	      1.56293339	    -19.90779379	     32.85742918	     98.95386091
